<?xml version="1.0" encoding="UTF-8" standalone="no"?>
<svg
   xmlns:dc="http://purl.org/dc/elements/1.1/"
   xmlns:cc="http://creativecommons.org/ns#"
   xmlns:rdf="http://www.w3.org/1999/02/22-rdf-syntax-ns#"
   xmlns:svg="http://www.w3.org/2000/svg"
   xmlns="http://www.w3.org/2000/svg"
   viewBox="0 0 2560 1440"
   height="1440"
   width="2560"
   xml:space="preserve"
   id="svg2"
   version="1.1"><metadata
     id="metadata8"><rdf:RDF><cc:Work
         rdf:about=""><dc:format>image/svg+xml</dc:format><dc:type
           rdf:resource="http://purl.org/dc/dcmitype/StillImage" /></cc:Work></rdf:RDF></metadata><defs
     id="defs6"><clipPath
       id="clipPath18"
       clipPathUnits="userSpaceOnUse"><path
         id="path16"
         d="m 330.327,559.653 c -3.755,0 -7.458,-0.744 -10.868,-2.163 v 0 h -0.018 c -3.252,-1.35 -6.264,-3.305 -8.842,-5.814 v 0 c -0.122,-0.104 -0.225,-0.208 -0.346,-0.33 v 0 l -46.534,-46.533 c -0.191,-0.191 -0.381,-0.399 -0.572,-0.588 v 0 c -2.734,-3.029 -4.084,-6.854 -4.084,-10.678 v 0 c 0,-4.068 1.54,-8.134 4.656,-11.25 v 0 l 136.28,-136.279 c 2.577,-2.578 5.762,-4.153 9.102,-4.742 v 0 c 1.004,-0.19 2.007,-0.276 3.012,-0.276 v 0 c 1.002,0 2.024,0.086 3.027,0.26 v 0 c 3.202,0.571 6.282,2.076 8.809,4.481 v 0 l 0.294,0.277 136.263,136.279 c 3.114,3.116 4.671,7.182 4.671,11.25 v 0 c 0,3.824 -1.366,7.649 -4.101,10.678 v 0 l -0.57,0.588 -46.517,46.533 c -0.121,0.122 -0.225,0.226 -0.346,0.33 v 0 c -2.579,2.509 -5.589,4.464 -8.843,5.814 v 0 h -0.018 c -3.426,1.419 -7.095,2.163 -10.867,2.163 v 0 z" /></clipPath><linearGradient
       id="linearGradient34"
       spreadMethod="pad"
       gradientTransform="matrix(-175.37854,-111.61375,-111.61375,175.37854,500.58652,533.70239)"
       gradientUnits="userSpaceOnUse"
       y2="0"
       x2="1"
       y1="0"
       x1="0"><stop
         id="stop28"
         offset="0"
         style="stop-opacity:0;stop-color:#ffffff" /><stop
         id="stop30"
         offset="0.178378"
         style="stop-opacity:0;stop-color:#ffffff" /><stop
         id="stop32"
         offset="1"
         style="stop-opacity:1;stop-color:#ffffff" /></linearGradient><mask
       id="mask36"
       height="1"
       width="1"
       y="0"
       x="0"
       maskUnits="userSpaceOnUse"><g
         id="g46"><g
           id="g44"><g
             id="g42"><g
               id="g40"><path
                 id="path38"
                 style="fill:url(#linearGradient34);stroke:none"
                 d="M -32768,32767 H 32767 V -32768 H -32768 Z" /></g></g></g></g></mask><linearGradient
       id="linearGradient58"
       spreadMethod="pad"
       gradientTransform="matrix(-175.37854,-111.61375,-111.61375,175.37854,500.58652,533.70239)"
       gradientUnits="userSpaceOnUse"
       y2="0"
       x2="1"
       y1="0"
       x1="0"><stop
         id="stop52"
         offset="0"
         style="stop-opacity:1;stop-color:#ffffff" /><stop
         id="stop54"
         offset="0.178378"
         style="stop-opacity:1;stop-color:#ffffff" /><stop
         id="stop56"
         offset="1"
         style="stop-opacity:1;stop-color:#ffffff" /></linearGradient><linearGradient
       id="linearGradient78"
       spreadMethod="pad"
       gradientTransform="matrix(-106.7857,-288.03775,-288.03775,106.7857,474.31677,659.88434)"
       gradientUnits="userSpaceOnUse"
       y2="0"
       x2="1"
       y1="0"
       x1="0"><stop
         id="stop74"
         offset="0"
         style="stop-opacity:1;stop-color:#8690ff" /><stop
         id="stop76"
         offset="1"
         style="stop-opacity:1;stop-color:#5e00ff" /></linearGradient><clipPath
       id="clipPath88"
       clipPathUnits="userSpaceOnUse"><path
         id="path86"
         d="M 0,1080 H 1920 V 0 H 0 Z" /></clipPath><clipPath
       id="clipPath96"
       clipPathUnits="userSpaceOnUse"><path
         id="path94"
         d="m 412.112,493.547 h 66.92 V 341 h -66.92 z" /></clipPath><clipPath
       id="clipPath100"
       clipPathUnits="userSpaceOnUse"><path
         id="path98"
         d="M 479.032,493.547 415.141,341.26 c -1.004,-0.173 -2.025,-0.26 -3.029,-0.26 v 152.547 z" /></clipPath><linearGradient
       id="linearGradient112"
       spreadMethod="pad"
       gradientTransform="matrix(85.186851,-102.0537,-102.0537,-85.186851,370.28693,507.46478)"
       gradientUnits="userSpaceOnUse"
       y2="0"
       x2="1"
       y1="0"
       x1="0"><stop
         id="stop106"
         offset="0"
         style="stop-opacity:1;stop-color:#ffffff" /><stop
         id="stop108"
         offset="0.821622"
         style="stop-opacity:0;stop-color:#ffffff" /><stop
         id="stop110"
         offset="1"
         style="stop-opacity:0;stop-color:#ffffff" /></linearGradient><mask
       id="mask114"
       height="1"
       width="1"
       y="0"
       x="0"
       maskUnits="userSpaceOnUse"><g
         id="g124"><g
           id="g122"><g
             id="g120"><g
               id="g118"><path
                 id="path116"
                 style="fill:url(#linearGradient112);stroke:none"
                 d="M -32768,32767 H 32767 V -32768 H -32768 Z" /></g></g></g></g></mask><linearGradient
       id="linearGradient132"
       spreadMethod="pad"
       gradientTransform="matrix(85.186851,-102.0537,-102.0537,-85.186851,370.28693,507.46478)"
       gradientUnits="userSpaceOnUse"
       y2="0"
       x2="1"
       y1="0"
       x1="0"><stop
         id="stop126"
         offset="0"
         style="stop-opacity:1;stop-color:#ffffff" /><stop
         id="stop128"
         offset="0.821622"
         style="stop-opacity:1;stop-color:#ffffff" /><stop
         id="stop130"
         offset="1"
         style="stop-opacity:1;stop-color:#ffffff" /></linearGradient><clipPath
       id="clipPath158"
       clipPathUnits="userSpaceOnUse"><path
         id="path156"
         d="M 415.141,493.547 H 565.178 V 341.26 H 415.141 Z" /></clipPath><clipPath
       id="clipPath162"
       clipPathUnits="userSpaceOnUse"><path
         id="path160"
         d="m 565.178,493.547 c 0,-4.068 -1.557,-8.134 -4.673,-11.249 l -136.262,-136.279 -0.294,-0.278 c -2.527,-2.405 -5.607,-3.91 -8.808,-4.481 l 63.891,152.287 z" /></clipPath><linearGradient
       id="linearGradient174"
       spreadMethod="pad"
       gradientTransform="matrix(44.82658,-179.43094,-179.43094,-44.82658,454.05719,561.9118)"
       gradientUnits="userSpaceOnUse"
       y2="0"
       x2="1"
       y1="0"
       x1="0"><stop
         id="stop168"
         offset="0"
         style="stop-opacity:1;stop-color:#ffffff" /><stop
         id="stop170"
         offset="0.901058"
         style="stop-opacity:0;stop-color:#ffffff" /><stop
         id="stop172"
         offset="1"
         style="stop-opacity:0;stop-color:#ffffff" /></linearGradient><mask
       id="mask176"
       height="1"
       width="1"
       y="0"
       x="0"
       maskUnits="userSpaceOnUse"><g
         id="g186"><g
           id="g184"><g
             id="g182"><g
               id="g180"><path
                 id="path178"
                 style="fill:url(#linearGradient174);stroke:none"
                 d="M -32768,32767 H 32767 V -32768 H -32768 Z" /></g></g></g></g></mask><linearGradient
       id="linearGradient194"
       spreadMethod="pad"
       gradientTransform="matrix(44.82658,-179.43094,-179.43094,-44.82658,454.05719,561.9118)"
       gradientUnits="userSpaceOnUse"
       y2="0"
       x2="1"
       y1="0"
       x1="0"><stop
         id="stop188"
         offset="0"
         style="stop-opacity:1;stop-color:#ffffff" /><stop
         id="stop190"
         offset="0.901058"
         style="stop-opacity:1;stop-color:#ffffff" /><stop
         id="stop192"
         offset="1"
         style="stop-opacity:1;stop-color:#ffffff" /></linearGradient><clipPath
       id="clipPath220"
       clipPathUnits="userSpaceOnUse"><path
         id="path218"
         d="m 345.21,493.547 h 66.902 V 341 H 345.21 Z" /></clipPath><clipPath
       id="clipPath224"
       clipPathUnits="userSpaceOnUse"><path
         id="path222"
         d="M 412.112,493.547 V 341 c -1.004,0 -2.008,0.087 -3.011,0.276 l -63.892,152.271 z" /></clipPath><linearGradient
       id="linearGradient236"
       spreadMethod="pad"
       gradientTransform="matrix(115.75719,-97.863831,-97.863831,-115.75719,303.40295,508.04416)"
       gradientUnits="userSpaceOnUse"
       y2="0"
       x2="1"
       y1="0"
       x1="0"><stop
         id="stop230"
         offset="0"
         style="stop-opacity:1;stop-color:#ffffff" /><stop
         id="stop232"
         offset="0.821622"
         style="stop-opacity:0;stop-color:#ffffff" /><stop
         id="stop234"
         offset="1"
         style="stop-opacity:0;stop-color:#ffffff" /></linearGradient><mask
       id="mask238"
       height="1"
       width="1"
       y="0"
       x="0"
       maskUnits="userSpaceOnUse"><g
         id="g248"><g
           id="g246"><g
             id="g244"><g
               id="g242"><path
                 id="path240"
                 style="fill:url(#linearGradient236);stroke:none"
                 d="M -32768,32767 H 32767 V -32768 H -32768 Z" /></g></g></g></g></mask><linearGradient
       id="linearGradient256"
       spreadMethod="pad"
       gradientTransform="matrix(115.75719,-97.863831,-97.863831,-115.75719,303.40295,508.04416)"
       gradientUnits="userSpaceOnUse"
       y2="0"
       x2="1"
       y1="0"
       x1="0"><stop
         id="stop250"
         offset="0"
         style="stop-opacity:1;stop-color:#ffffff" /><stop
         id="stop252"
         offset="0.821622"
         style="stop-opacity:1;stop-color:#ffffff" /><stop
         id="stop254"
         offset="1"
         style="stop-opacity:1;stop-color:#ffffff" /></linearGradient><clipPath
       id="clipPath282"
       clipPathUnits="userSpaceOnUse"><path
         id="path280"
         d="M 259.064,493.547 H 409.101 V 341.277 H 259.064 Z" /></clipPath><clipPath
       id="clipPath286"
       clipPathUnits="userSpaceOnUse"><path
         id="path284"
         d="m 409.101,341.276 c -3.34,0.589 -6.524,2.164 -9.102,4.743 l -136.28,136.279 c -3.115,3.115 -4.656,7.181 -4.656,11.249 h 86.146 z" /></clipPath><linearGradient
       id="linearGradient298"
       spreadMethod="pad"
       gradientTransform="matrix(214.34749,-49.515057,-49.515057,-214.34749,176.59741,463.7291)"
       gradientUnits="userSpaceOnUse"
       y2="0"
       x2="1"
       y1="0"
       x1="0"><stop
         id="stop292"
         offset="0"
         style="stop-opacity:1;stop-color:#ffffff" /><stop
         id="stop294"
         offset="0.821622"
         style="stop-opacity:0;stop-color:#ffffff" /><stop
         id="stop296"
         offset="1"
         style="stop-opacity:0;stop-color:#ffffff" /></linearGradient><mask
       id="mask300"
       height="1"
       width="1"
       y="0"
       x="0"
       maskUnits="userSpaceOnUse"><g
         id="g310"><g
           id="g308"><g
             id="g306"><g
               id="g304"><path
                 id="path302"
                 style="fill:url(#linearGradient298);stroke:none"
                 d="M -32768,32767 H 32767 V -32768 H -32768 Z" /></g></g></g></g></mask><linearGradient
       id="linearGradient318"
       spreadMethod="pad"
       gradientTransform="matrix(214.34749,-49.515057,-49.515057,-214.34749,176.59741,463.7291)"
       gradientUnits="userSpaceOnUse"
       y2="0"
       x2="1"
       y1="0"
       x1="0"><stop
         id="stop312"
         offset="0"
         style="stop-opacity:1;stop-color:#ffffff" /><stop
         id="stop314"
         offset="0.821622"
         style="stop-opacity:1;stop-color:#ffffff" /><stop
         id="stop316"
         offset="1"
         style="stop-opacity:1;stop-color:#ffffff" /></linearGradient><linearGradient
       id="linearGradient354"
       spreadMethod="pad"
       gradientTransform="matrix(-67.428558,-227.63026,-227.63026,67.428558,457.91235,649.30524)"
       gradientUnits="userSpaceOnUse"
       y2="0"
       x2="1"
       y1="0"
       x1="0"><stop
         id="stop350"
         offset="0"
         style="stop-opacity:1;stop-color:#8690ff" /><stop
         id="stop352"
         offset="1"
         style="stop-opacity:1;stop-color:#5e00ff" /></linearGradient><clipPath
       id="clipPath364"
       clipPathUnits="userSpaceOnUse"><path
         id="path362"
         d="M 0,1080 H 1920 V 0 H 0 Z" /></clipPath><clipPath
       id="clipPath372"
       clipPathUnits="userSpaceOnUse"><path
         id="path370"
         d="M 259.064,559.654 H 565.178 V 493.547 H 259.064 Z" /></clipPath><clipPath
       id="clipPath376"
       clipPathUnits="userSpaceOnUse"><path
         id="path374"
         d="M 259.064,557.49 H 345.21 V 493.547 H 259.064 Z" /></clipPath><clipPath
       id="clipPath380"
       clipPathUnits="userSpaceOnUse"><path
         id="path378"
         d="m 345.209,493.547 h -86.146 c 0,3.824 1.351,7.648 4.084,10.678 l 47.452,47.45 c 2.578,2.51 5.589,4.465 8.843,5.815 h 0.017 z" /></clipPath><linearGradient
       id="linearGradient392"
       spreadMethod="pad"
       gradientTransform="matrix(-81.761803,-66.835815,-66.835815,81.761803,352.58142,542.85046)"
       gradientUnits="userSpaceOnUse"
       y2="0"
       x2="1"
       y1="0"
       x1="0"><stop
         id="stop386"
         offset="0"
         style="stop-opacity:1;stop-color:#ffffff" /><stop
         id="stop388"
         offset="0.821622"
         style="stop-opacity:0;stop-color:#ffffff" /><stop
         id="stop390"
         offset="1"
         style="stop-opacity:0;stop-color:#ffffff" /></linearGradient><mask
       id="mask394"
       height="1"
       width="1"
       y="0"
       x="0"
       maskUnits="userSpaceOnUse"><g
         id="g404"><g
           id="g402"><g
             id="g400"><g
               id="g398"><path
                 id="path396"
                 style="fill:url(#linearGradient392);stroke:none"
                 d="M -32768,32767 H 32767 V -32768 H -32768 Z" /></g></g></g></g></mask><linearGradient
       id="linearGradient412"
       spreadMethod="pad"
       gradientTransform="matrix(-81.761803,-66.835815,-66.835815,81.761803,352.58142,542.85046)"
       gradientUnits="userSpaceOnUse"
       y2="0"
       x2="1"
       y1="0"
       x1="0"><stop
         id="stop406"
         offset="0"
         style="stop-opacity:1;stop-color:#ffffff" /><stop
         id="stop408"
         offset="0.821622"
         style="stop-opacity:1;stop-color:#ffffff" /><stop
         id="stop410"
         offset="1"
         style="stop-opacity:1;stop-color:#ffffff" /></linearGradient><clipPath
       id="clipPath416"
       clipPathUnits="userSpaceOnUse"><path
         id="path414"
         d="M 345.203,559.654 H 479.038 V 493.549 H 345.203 Z" /></clipPath><clipPath
       id="clipPath420"
       clipPathUnits="userSpaceOnUse"><path
         id="path418"
         d="M 479.039,493.549 H 345.203 l 66.918,66.105 z" /></clipPath><linearGradient
       id="linearGradient432"
       spreadMethod="pad"
       gradientTransform="matrix(-81.269989,-60.332294,-60.332294,81.269989,470.49826,545.10065)"
       gradientUnits="userSpaceOnUse"
       y2="0"
       x2="1"
       y1="0"
       x1="0"><stop
         id="stop426"
         offset="0"
         style="stop-opacity:1;stop-color:#ffffff" /><stop
         id="stop428"
         offset="0.821622"
         style="stop-opacity:0;stop-color:#ffffff" /><stop
         id="stop430"
         offset="1"
         style="stop-opacity:0;stop-color:#ffffff" /></linearGradient><mask
       id="mask434"
       height="1"
       width="1"
       y="0"
       x="0"
       maskUnits="userSpaceOnUse"><g
         id="g444"><g
           id="g442"><g
             id="g440"><g
               id="g438"><path
                 id="path436"
                 style="fill:url(#linearGradient432);stroke:none"
                 d="M -32768,32767 H 32767 V -32768 H -32768 Z" /></g></g></g></g></mask><linearGradient
       id="linearGradient452"
       spreadMethod="pad"
       gradientTransform="matrix(-81.269989,-60.332294,-60.332294,81.269989,470.49826,545.10065)"
       gradientUnits="userSpaceOnUse"
       y2="0"
       x2="1"
       y1="0"
       x1="0"><stop
         id="stop446"
         offset="0"
         style="stop-opacity:1;stop-color:#ffffff" /><stop
         id="stop448"
         offset="0.821622"
         style="stop-opacity:1;stop-color:#ffffff" /><stop
         id="stop450"
         offset="1"
         style="stop-opacity:1;stop-color:#ffffff" /></linearGradient><clipPath
       id="clipPath456"
       clipPathUnits="userSpaceOnUse"><path
         id="path454"
         d="m 479.032,557.49 h 86.146 v -63.943 h -86.146 z" /></clipPath><clipPath
       id="clipPath460"
       clipPathUnits="userSpaceOnUse"><path
         id="path458"
         d="m 565.178,493.547 h -86.146 l 25.75,63.943 h 0.018 c 3.253,-1.35 6.264,-3.305 8.843,-5.815 l 46.862,-46.863 0.572,-0.587 c 2.734,-3.03 4.101,-6.854 4.101,-10.678" /></clipPath><linearGradient
       id="linearGradient472"
       spreadMethod="pad"
       gradientTransform="matrix(-82.708557,-59.933712,-59.933712,82.708557,567.78577,549.29047)"
       gradientUnits="userSpaceOnUse"
       y2="0"
       x2="1"
       y1="0"
       x1="0"><stop
         id="stop466"
         offset="0"
         style="stop-opacity:1;stop-color:#ffffff" /><stop
         id="stop468"
         offset="0.821622"
         style="stop-opacity:0;stop-color:#ffffff" /><stop
         id="stop470"
         offset="1"
         style="stop-opacity:0;stop-color:#ffffff" /></linearGradient><mask
       id="mask474"
       height="1"
       width="1"
       y="0"
       x="0"
       maskUnits="userSpaceOnUse"><g
         id="g484"><g
           id="g482"><g
             id="g480"><g
               id="g478"><path
                 id="path476"
                 style="fill:url(#linearGradient472);stroke:none"
                 d="M -32768,32767 H 32767 V -32768 H -32768 Z" /></g></g></g></g></mask><linearGradient
       id="linearGradient492"
       spreadMethod="pad"
       gradientTransform="matrix(-82.708557,-59.933712,-59.933712,82.708557,567.78577,549.29047)"
       gradientUnits="userSpaceOnUse"
       y2="0"
       x2="1"
       y1="0"
       x1="0"><stop
         id="stop486"
         offset="0"
         style="stop-opacity:1;stop-color:#ffffff" /><stop
         id="stop488"
         offset="0.821622"
         style="stop-opacity:1;stop-color:#ffffff" /><stop
         id="stop490"
         offset="1"
         style="stop-opacity:1;stop-color:#ffffff" /></linearGradient><clipPath
       id="clipPath496"
       clipPathUnits="userSpaceOnUse"><path
         id="path494"
         d="m 319.459,559.653 h 92.653 v -66.106 h -92.653 z" /></clipPath><clipPath
       id="clipPath500"
       clipPathUnits="userSpaceOnUse"><path
         id="path498"
         d="m 412.112,559.653 -66.903,-66.106 -25.75,63.943 c 3.41,1.419 7.113,2.163 10.868,2.163 z" /></clipPath><linearGradient
       id="linearGradient512"
       spreadMethod="pad"
       gradientTransform="matrix(-89.284119,-76.746567,-76.746567,89.284119,414.69803,596.31616)"
       gradientUnits="userSpaceOnUse"
       y2="0"
       x2="1"
       y1="0"
       x1="0"><stop
         id="stop506"
         offset="0"
         style="stop-opacity:1;stop-color:#ffffff" /><stop
         id="stop508"
         offset="0.821622"
         style="stop-opacity:0;stop-color:#ffffff" /><stop
         id="stop510"
         offset="1"
         style="stop-opacity:0;stop-color:#ffffff" /></linearGradient><mask
       id="mask514"
       height="1"
       width="1"
       y="0"
       x="0"
       maskUnits="userSpaceOnUse"><g
         id="g524"><g
           id="g522"><g
             id="g520"><g
               id="g518"><path
                 id="path516"
                 style="fill:url(#linearGradient512);stroke:none"
                 d="M -32768,32767 H 32767 V -32768 H -32768 Z" /></g></g></g></g></mask><linearGradient
       id="linearGradient532"
       spreadMethod="pad"
       gradientTransform="matrix(-89.284119,-76.746567,-76.746567,89.284119,414.69803,596.31616)"
       gradientUnits="userSpaceOnUse"
       y2="0"
       x2="1"
       y1="0"
       x1="0"><stop
         id="stop526"
         offset="0"
         style="stop-opacity:1;stop-color:#ffffff" /><stop
         id="stop528"
         offset="0.821622"
         style="stop-opacity:1;stop-color:#ffffff" /><stop
         id="stop530"
         offset="1"
         style="stop-opacity:1;stop-color:#ffffff" /></linearGradient><clipPath
       id="clipPath536"
       clipPathUnits="userSpaceOnUse"><path
         id="path534"
         d="m 412.112,559.653 h 92.67 v -66.106 h -92.67 z" /></clipPath><clipPath
       id="clipPath540"
       clipPathUnits="userSpaceOnUse"><path
         id="path538"
         d="m 504.782,557.49 -25.75,-63.943 -66.92,66.106 h 81.803 c 3.772,0 7.441,-0.744 10.867,-2.163" /></clipPath><linearGradient
       id="linearGradient552"
       spreadMethod="pad"
       gradientTransform="matrix(-58.203625,-30.201408,-30.201408,58.203625,508.17825,559.08575)"
       gradientUnits="userSpaceOnUse"
       y2="0"
       x2="1"
       y1="0"
       x1="0"><stop
         id="stop546"
         offset="0"
         style="stop-opacity:1;stop-color:#ffffff" /><stop
         id="stop548"
         offset="0.821622"
         style="stop-opacity:0;stop-color:#ffffff" /><stop
         id="stop550"
         offset="1"
         style="stop-opacity:0;stop-color:#ffffff" /></linearGradient><mask
       id="mask554"
       height="1"
       width="1"
       y="0"
       x="0"
       maskUnits="userSpaceOnUse"><g
         id="g564"><g
           id="g562"><g
             id="g560"><g
               id="g558"><path
                 id="path556"
                 style="fill:url(#linearGradient552);stroke:none"
                 d="M -32768,32767 H 32767 V -32768 H -32768 Z" /></g></g></g></g></mask><linearGradient
       id="linearGradient572"
       spreadMethod="pad"
       gradientTransform="matrix(-58.203625,-30.201408,-30.201408,58.203625,508.17825,559.08575)"
       gradientUnits="userSpaceOnUse"
       y2="0"
       x2="1"
       y1="0"
       x1="0"><stop
         id="stop566"
         offset="0"
         style="stop-opacity:1;stop-color:#ffffff" /><stop
         id="stop568"
         offset="0.821622"
         style="stop-opacity:1;stop-color:#ffffff" /><stop
         id="stop570"
         offset="1"
         style="stop-opacity:1;stop-color:#ffffff" /></linearGradient><linearGradient
       id="linearGradient738"
       spreadMethod="pad"
       gradientTransform="matrix(191.15208,94.435081,94.435081,-191.15208,344.95746,601.20032)"
       gradientUnits="userSpaceOnUse"
       y2="0"
       x2="1"
       y1="0"
       x1="0"><stop
         id="stop732"
         offset="0"
         style="stop-opacity:1;stop-color:#5e00ff" /><stop
         id="stop734"
         offset="0.82197636"
         style="stop-opacity:1;stop-color:#9290ff" /><stop
         id="stop736"
         offset="1"
         style="stop-opacity:1;stop-color:#9290ff" /></linearGradient></defs><g
     transform="matrix(1.3333333,0,0,-1.3333333,0,1440)"
     id="g10"><g
       id="g12"><g
         clip-path="url(#clipPath18)"
         id="g14"><g
           id="g20"><g
             id="g22" /><g
             mask="url(#mask36)"
             id="g48"><g
               id="g50"><path
                 id="path60"
                 style="fill:url(#linearGradient58);stroke:none"
                 d="m 330.327,559.653 c -3.755,0 -7.458,-0.744 -10.868,-2.163 v 0 h -0.018 c -3.252,-1.35 -6.264,-3.305 -8.842,-5.814 v 0 c -0.122,-0.104 -0.225,-0.208 -0.346,-0.33 v 0 l -46.534,-46.533 c -0.191,-0.191 -0.381,-0.399 -0.572,-0.588 v 0 c -2.734,-3.029 -4.084,-6.854 -4.084,-10.678 v 0 c 0,-4.068 1.54,-8.134 4.656,-11.25 v 0 l 136.28,-136.279 c 2.577,-2.578 5.762,-4.153 9.102,-4.742 v 0 c 1.004,-0.19 2.007,-0.276 3.012,-0.276 v 0 c 1.002,0 2.024,0.086 3.027,0.26 v 0 c 3.202,0.571 6.282,2.076 8.809,4.481 v 0 l 0.294,0.277 136.263,136.279 c 3.114,3.116 4.671,7.182 4.671,11.25 v 0 c 0,3.824 -1.366,7.649 -4.101,10.678 v 0 l -0.57,0.588 -46.517,46.533 c -0.121,0.122 -0.225,0.226 -0.346,0.33 v 0 c -2.579,2.509 -5.589,4.464 -8.843,5.814 v 0 h -0.018 c -3.426,1.419 -7.095,2.163 -10.867,2.163 v 0 z" /></g></g></g></g></g><g
       id="g62"><g
         id="g64"><g
           id="g70"><g
             id="g72"><path
               id="path80"
               style="fill:url(#linearGradient78);stroke:none"
               d="m 259.063,493.547 c 0,-4.068 1.54,-8.134 4.656,-11.25 v 0 l 136.28,-136.279 c 2.577,-2.578 5.762,-4.153 9.102,-4.742 v 0 c 1.004,-0.19 2.007,-0.276 3.012,-0.276 v 0 c 1.002,0 2.024,0.086 3.027,0.26 v 0 c 3.202,0.571 6.282,2.076 8.809,4.481 v 0 l 0.294,0.277 136.263,136.279 c 3.114,3.116 4.671,7.182 4.671,11.25 v 0 z" /></g></g></g></g><g
       id="g82"><g
         clip-path="url(#clipPath88)"
         id="g84"><g
           id="g90"><g
             id="g92" /><g
             id="g150"><g
               style="opacity:0.61000103"
               id="g148"
               clip-path="url(#clipPath96)"><g
                 id="g146"><g
                   id="g144"
                   clip-path="url(#clipPath100)"><g
                     id="g142"><g
                       id="g134" /><g
                       id="g140"
                       mask="url(#mask114)"><g
                         id="g138"><path
                           id="path136"
                           style="fill:url(#linearGradient132);stroke:none"
                           d="M 479.032,493.547 415.141,341.26 c -1.004,-0.173 -2.025,-0.26 -3.029,-0.26 v 152.547 z" /></g></g></g></g></g></g></g></g><g
           id="g152"><g
             id="g154" /><g
             id="g212"><g
               style="opacity:0.61000103"
               id="g210"
               clip-path="url(#clipPath158)"><g
                 id="g208"><g
                   id="g206"
                   clip-path="url(#clipPath162)"><g
                     id="g204"><g
                       id="g196" /><g
                       id="g202"
                       mask="url(#mask176)"><g
                         id="g200"><path
                           id="path198"
                           style="fill:url(#linearGradient194);stroke:none"
                           d="m 565.178,493.547 c 0,-4.068 -1.557,-8.134 -4.673,-11.249 l -136.262,-136.279 -0.294,-0.278 c -2.527,-2.405 -5.607,-3.91 -8.808,-4.481 l 63.891,152.287 z" /></g></g></g></g></g></g></g></g><g
           id="g214"><g
             id="g216" /><g
             id="g274"><g
               style="opacity:0.61000103"
               id="g272"
               clip-path="url(#clipPath220)"><g
                 id="g270"><g
                   id="g268"
                   clip-path="url(#clipPath224)"><g
                     id="g266"><g
                       id="g258" /><g
                       id="g264"
                       mask="url(#mask238)"><g
                         id="g262"><path
                           id="path260"
                           style="fill:url(#linearGradient256);stroke:none"
                           d="M 412.112,493.547 V 341 c -1.004,0 -2.008,0.087 -3.011,0.276 l -63.892,152.271 z" /></g></g></g></g></g></g></g></g><g
           id="g276"><g
             id="g278" /><g
             id="g336"><g
               style="opacity:0.61000103"
               id="g334"
               clip-path="url(#clipPath282)"><g
                 id="g332"><g
                   id="g330"
                   clip-path="url(#clipPath286)"><g
                     id="g328"><g
                       id="g320" /><g
                       id="g326"
                       mask="url(#mask300)"><g
                         id="g324"><path
                           id="path322"
                           style="fill:url(#linearGradient318);stroke:none"
                           d="m 409.101,341.276 c -3.34,0.589 -6.524,2.164 -9.102,4.743 l -136.28,136.279 c -3.115,3.115 -4.656,7.181 -4.656,11.249 h 86.146 z" /></g></g></g></g></g></g></g></g></g></g><g
       id="g338"><g
         id="g340"><g
           id="g346"><g
             id="g348"><path
               id="path356"
               style="fill:url(#linearGradient354);stroke:none"
               d="m 330.327,559.653 c -3.755,0 -7.458,-0.744 -10.868,-2.163 v 0 h -0.018 c -3.252,-1.35 -6.264,-3.305 -8.842,-5.814 v 0 l -47.452,-47.451 c -2.734,-3.029 -4.084,-6.854 -4.084,-10.678 v 0 h 306.114 c 0,3.824 -1.366,7.649 -4.101,10.678 v 0 l -0.57,0.588 -46.863,46.863 c -2.579,2.509 -5.589,4.464 -8.843,5.814 v 0 h -0.018 c -3.426,1.419 -7.095,2.163 -10.867,2.163 v 0 z" /></g></g></g></g><g
       id="g358"><g
         clip-path="url(#clipPath364)"
         id="g360"><g
           id="g366"><g
             id="g368" /><g
             id="g686"><g
               style="opacity:0.61000103"
               id="g684"
               clip-path="url(#clipPath372)"><g
                 id="g594"><g
                   id="g574" /><g
                   id="g592"><g
                     id="g590"
                     clip-path="url(#clipPath376)"><g
                       id="g588"><g
                         id="g586"
                         clip-path="url(#clipPath380)"><g
                           id="g584"><g
                             id="g576" /><g
                             id="g582"
                             mask="url(#mask394)"><g
                               id="g580"><path
                                 id="path578"
                                 style="fill:url(#linearGradient412);stroke:none"
                                 d="m 345.209,493.547 h -86.146 c 0,3.824 1.351,7.648 4.084,10.678 l 47.452,47.45 c 2.578,2.51 5.589,4.465 8.843,5.815 h 0.017 z" /></g></g></g></g></g></g></g></g><g
                 id="g616"><g
                   id="g596" /><g
                   id="g614"><g
                     id="g612"
                     clip-path="url(#clipPath416)"><g
                       id="g610"><g
                         id="g608"
                         clip-path="url(#clipPath420)"><g
                           id="g606"><g
                             id="g598" /><g
                             id="g604"
                             mask="url(#mask434)"><g
                               id="g602"><path
                                 id="path600"
                                 style="fill:url(#linearGradient452);stroke:none"
                                 d="M 479.039,493.549 H 345.203 l 66.918,66.105 z" /></g></g></g></g></g></g></g></g><g
                 id="g638"><g
                   id="g618" /><g
                   id="g636"><g
                     id="g634"
                     clip-path="url(#clipPath456)"><g
                       id="g632"><g
                         id="g630"
                         clip-path="url(#clipPath460)"><g
                           id="g628"><g
                             id="g620" /><g
                             id="g626"
                             mask="url(#mask474)"><g
                               id="g624"><path
                                 id="path622"
                                 style="fill:url(#linearGradient492);stroke:none"
                                 d="m 565.178,493.547 h -86.146 l 25.75,63.943 h 0.018 c 3.253,-1.35 6.264,-3.305 8.843,-5.815 l 46.862,-46.863 0.572,-0.587 c 2.734,-3.03 4.101,-6.854 4.101,-10.678" /></g></g></g></g></g></g></g></g><g
                 id="g660"><g
                   id="g640" /><g
                   id="g658"><g
                     id="g656"
                     clip-path="url(#clipPath496)"><g
                       id="g654"><g
                         id="g652"
                         clip-path="url(#clipPath500)"><g
                           id="g650"><g
                             id="g642" /><g
                             id="g648"
                             mask="url(#mask514)"><g
                               id="g646"><path
                                 id="path644"
                                 style="fill:url(#linearGradient532);stroke:none"
                                 d="m 412.112,559.653 -66.903,-66.106 -25.75,63.943 c 3.41,1.419 7.113,2.163 10.868,2.163 z" /></g></g></g></g></g></g></g></g><g
                 id="g682"><g
                   id="g662" /><g
                   id="g680"><g
                     id="g678"
                     clip-path="url(#clipPath536)"><g
                       id="g676"><g
                         id="g674"
                         clip-path="url(#clipPath540)"><g
                           id="g672"><g
                             id="g664" /><g
                             id="g670"
                             mask="url(#mask554)"><g
                               id="g668"><path
                                 id="path666"
                                 style="fill:url(#linearGradient572);stroke:none"
                                 d="m 504.782,557.49 -25.75,-63.943 -66.92,66.106 h 81.803 c 3.772,0 7.441,-0.744 10.867,-2.163" /></g></g></g></g></g></g></g></g></g></g></g><g
           transform="translate(669.9541,518.3145)"
           id="g688"><path
             id="path690"
             style="fill:#000000;fill-opacity:1;fill-rule:nonzero;stroke:none"
             d="m 0,0 h 33.023 c 14.449,0 24.081,9.174 24.081,22.705 0,13.53 -9.632,23.162 -24.081,23.162 H 0 Z M 57.563,-85.083 30.042,-28.896 H 0 V -85.083 H -33.253 V 75.45 h 69.717 c 28.667,0 54.352,-19.034 54.352,-52.288 0,-22.933 -12.384,-38.986 -29.355,-46.783 l 33.025,-61.462 z" /></g><g
           transform="translate(771.3027,483.6846)"
           id="g692"><path
             id="path694"
             style="fill:#000000;fill-opacity:1;fill-rule:nonzero;stroke:none"
             d="M 0,0 V 63.066 H 32.107 V 3.44 c 0,-18.804 10.091,-27.749 24.768,-27.749 15.824,0 25.915,11.466 25.915,32.565 v 54.81 h 32.107 V -50.453 H 83.249 v 13.76 H 82.79 C 75.222,-45.638 63.296,-51.828 49.078,-51.828 19.952,-51.828 0,-33.711 0,0" /></g><g
           transform="translate(990.6348,490.1064)"
           id="g696"><path
             id="path698"
             style="fill:#000000;fill-opacity:1;fill-rule:nonzero;stroke:none"
             d="m 0,0 c 0,17.658 -12.385,30.73 -28.896,30.73 -16.513,0 -29.355,-13.072 -29.355,-30.73 0,-17.658 12.842,-30.73 29.355,-30.73 C -12.385,-30.73 0,-17.658 0,0 m -58.251,-42.426 v -14.449 h -32.107 v 172 h 32.107 V 42.197 c 8.485,9.862 20.181,16.512 37.381,16.512 30.272,0 52.975,-25.455 52.975,-58.709 0,-33.254 -22.703,-58.939 -52.975,-58.939 -17.2,0 -28.896,6.879 -37.381,16.513" /></g><g
           transform="translate(1032.3711,405.9414)"
           id="g700"><path
             id="path702"
             style="fill:#000000;fill-opacity:1;fill-rule:nonzero;stroke:none"
             d="m 0,0 c 15.824,0.229 27.062,6.879 31.19,20.409 l 3.44,8.028 -47.701,112.373 h 34.17 L 50.913,59.397 80.038,140.81 h 34.17 L 59.627,9.403 C 47.702,-19.494 27.062,-30.044 -2.981,-30.044 Z" /></g><g
           transform="translate(1123.3271,440.3408)"
           id="g704"><path
             id="path706"
             style="fill:#5e00ff;fill-opacity:1;fill-rule:nonzero;stroke:none"
             d="m 0,0 16.283,29.126 c 5.504,-3.44 12.843,-5.505 21.786,-5.505 24.997,0 34.63,16.742 34.63,40.134 v 89.668 h 33.942 V 57.104 C 106.641,10.778 76.827,-9.403 40.593,-9.403 23.622,-9.403 10.549,-6.191 0,0" /></g><g
           transform="translate(1332.0361,490.1064)"
           id="g708"><path
             id="path710"
             style="fill:#5e00ff;fill-opacity:1;fill-rule:nonzero;stroke:none"
             d="m 0,0 c 0,17.658 -12.842,30.73 -29.354,30.73 -16.512,0 -29.125,-13.072 -29.125,-30.73 0,-17.658 12.613,-30.73 29.125,-30.73 C -12.842,-30.73 0,-17.658 0,0 m -90.356,0 c 0,33.254 22.703,58.709 52.975,58.709 17.2,0 28.896,-6.192 37.381,-16.283 V 56.645 H 32.107 V -56.875 H 0 v 14.219 c -8.485,-9.863 -20.181,-16.283 -37.381,-16.283 -30.272,0 -52.975,25.685 -52.975,58.939" /></g><g
           transform="translate(1385.3164,546.751)"
           id="g712"><path
             id="path714"
             style="fill:#5e00ff;fill-opacity:1;fill-rule:nonzero;stroke:none"
             d="M 0,0 H 32.106 V -14.678 C 41.739,-2.293 54.353,2.293 73.387,2.065 v -31.419 c -4.128,0.689 -7.109,0.917 -10.549,0.917 -16.054,0 -30.732,-10.09 -30.732,-33.71 V -113.52 H 0 Z" /></g><g
           transform="translate(1555.9414,490.1064)"
           id="g716"><path
             id="path718"
             style="fill:#5e00ff;fill-opacity:1;fill-rule:nonzero;stroke:none"
             d="M 0,0 C 0,17.658 -12.842,30.73 -29.354,30.73 -45.866,30.73 -58.25,17.658 -58.25,0 c 0,-17.658 12.384,-30.73 28.896,-30.73 C -12.842,-30.73 0,-17.658 0,0 m -90.356,0 c 0,33.254 22.703,58.709 52.975,58.709 17.2,0 29.355,-6.65 37.381,-16.512 v 72.928 h 32.107 v -172 H 0 v 14.449 c -8.026,-9.862 -20.181,-16.513 -37.381,-16.513 -30.272,0 -52.975,25.685 -52.975,58.939" /></g></g></g><g
       id="g720"><g
         id="g722"><g
           id="g728"><g
             id="g730"><path
               id="path740"
               style="fill:url(#linearGradient738);stroke:none"
               d="m 470.596,684.675 c -5.446,-2.2 -12.134,-5.601 -18.815,-10.772 v 0 c -5.989,-4.634 -12.468,-11.12 -17.914,-19.993 v 0 c -6.93,1.861 -14.214,2.86 -21.732,2.86 v 0 c -6.491,0 -12.809,-0.74 -18.876,-2.14 v 0 c -5.351,8.503 -11.64,14.765 -17.465,19.273 v 0 c -6.808,5.27 -13.616,8.695 -19.118,10.89 v 0 c -1.621,6.103 -7.169,10.605 -13.782,10.605 v 0 c -7.885,0 -14.277,-6.391 -14.277,-14.276 v 0 c 0,-7.885 6.392,-14.277 14.277,-14.277 v 0 c 3.957,0 7.535,1.61 10.122,4.21 v 0 c 7.691,-3.277 18.127,-9.504 26.293,-20.979 v 0 c -25.192,-10.765 -44.026,-33.541 -49.301,-61.13 v 0 c -1.567,-8.2 4.776,-15.792 13.125,-15.792 v 0 H 481.14 c 8.441,0 14.686,7.729 13.078,16.016 v 0 c -5.154,26.56 -22.885,48.634 -46.743,59.778 v 0 c 8.209,12.105 18.969,18.622 26.893,22.027 v 0 c 2.58,-2.551 6.125,-4.13 10.04,-4.13 v 0 c 7.885,0 14.277,6.392 14.277,14.277 v 0 c 0,7.885 -6.392,14.276 -14.277,14.276 v 0 c -6.656,0 -12.231,-4.561 -13.812,-10.723" /></g></g></g></g></g></svg>